<svg xmlns="http://www.w3.org/2000/svg" width="26" height="26" viewBox="0 0 26 26">
  <g id="telefon" transform="translate(-242 -139.215)">
    <rect id="Rectangle_196" data-name="Rectangle 196" width="26" height="26" rx="13" transform="translate(242 139.215)" fill="#3781f1"/>
    <path id="phone" d="M13.4,9.21a2.059,2.059,0,0,1-.438-.079,6.176,6.176,0,0,1-.857-.255,1.308,1.308,0,0,0-1.622.654l-.144.294A7.968,7.968,0,0,1,8.6,8.517a7.968,7.968,0,0,1-1.308-1.74l.275-.183a1.308,1.308,0,0,0,.654-1.622,6.758,6.758,0,0,1-.255-.857c-.033-.144-.059-.294-.079-.445A1.963,1.963,0,0,0,5.926,2.04H3.963A1.963,1.963,0,0,0,2,4.271,12.43,12.43,0,0,0,12.808,15.039h.249a1.958,1.958,0,0,0,1.963-1.969V11.107A1.963,1.963,0,0,0,13.4,9.21Zm.327,3.925a.654.654,0,0,1-.222.491.687.687,0,0,1-.536.164A11.122,11.122,0,0,1,3.348,4.12a.713.713,0,0,1,.164-.536A.654.654,0,0,1,4,3.361H5.965a.654.654,0,0,1,.654.517q.039.268.1.53a7.275,7.275,0,0,0,.3,1.014L6.1,5.847a.654.654,0,0,0-.321.87A9.48,9.48,0,0,0,10.361,11.3a.693.693,0,0,0,.87-.34l.406-.916a8.956,8.956,0,0,0,1.034.3q.262.059.53.1a.654.654,0,0,1,.517.654Z" transform="translate(246.499 143.675)" fill="#fff"/>
  </g>
</svg>
