<svg xmlns="http://www.w3.org/2000/svg" width="26" height="26" viewBox="0 0 26 26">
  <g id="wiadomosc" transform="translate(-246 -147.215)">
    <rect id="Rectangle_196" data-name="Rectangle 196" width="26" height="26" rx="13" transform="translate(246 147.215)" fill="#3781f1"/>
    <path id="envelope-alt" d="M14.392,4H4.187A2.187,2.187,0,0,0,2,6.187v7.29a2.187,2.187,0,0,0,2.187,2.187H14.392a2.187,2.187,0,0,0,2.187-2.187V6.187A2.187,2.187,0,0,0,14.392,4ZM4.187,5.458H14.392a.729.729,0,0,1,.729.729L9.29,9.744,3.458,6.187A.729.729,0,0,1,4.187,5.458Zm10.935,8.019a.729.729,0,0,1-.729.729H4.187a.729.729,0,0,1-.729-.729V7.849L8.911,11.18a.729.729,0,0,0,.729,0l5.482-3.331Z" transform="translate(249.832 150.262)" fill="#fff"/>
  </g>
</svg>
